# xmcd
#
# Track frame offsets:
#   150
#   15605
#   29213
#   42241
#   59585
#   83137
#   98551
#   114583
#   131677
#   148503
#   169421
#   188666
#   210346
#   227205
#   247951
#
# Disc length: 3581 seconds
#
# Revision: 0
# Processed by: cddbd v1.5.1PL0 Copyright (c) Steve Scherf et al.
# Submitted via: Media_Universe 3.0
#
DISCID=ce0dfb0f
DTITLE=Martina McBride - Emotion
DYEAR=1900
DGENRE=Country
TTITLE0=Do What You Do
TTITLE1=Anythings Better Than Feeling The Blues
TTITLE2=I Love You
TTITLE3=Make Me Believe
TTITLE4=Loves The Only House
TTITLE5=There You Are
TTITLE6=Its My Time
TTITLE7=I Aint Goin Nowhere
TTITLE8=Anything And Everything
TTITLE9=From The Ashes
TTITLE10=Good Bye
TTITLE11=This Uncivil War
TTITLE12=Gos Fearin Women Get The Blues
TTITLE13=I Have Been Blessed
TTITLE14=Where Would You Be
EXTD=
EXTT0=
EXTT1=
EXTT2=
EXTT3=
EXTT4=
EXTT5=
EXTT6=
EXTT7=
EXTT8=
EXTT9=
EXTT10=
EXTT11=
EXTT12=
EXTT13=
EXTT14=
PLAYORDER=
